inDegrees=no
num_controls=7
num_derivatives=13
num_iterations=107
num_multipliers=7
num_parameters=0
num_slacks=7
num_states=26
objective=0.431155
objective_accelerations=0.050018
objective_balance=0.006788
objective_effort=0.031195
objective_height=0.341982
objective_ligament=0.001171
solver_duration=1493.332839
status=Solve_Succeeded
success=true
DataType=double
version=3
OpenSimVersion=4.5
endheader
time	/jointset/ground_pelvis/pelvis_tilt/value	/jointset/ground_pelvis/pelvis_tx/value	/jointset/ground_pelvis/pelvis_ty/value	/jointset/hip_l/hip_flexion_l/value	/jointset/hip_l/hip_adduction_l/value	/jointset/hip_l/hip_rotation_l/value	/jointset/back/lumbar_extension/value	/jointset/patellofemoral_l/patellar_flexion_l/value	/jointset/knee_l/knee_flexion_l/value	/jointset/knee_l/knee_adduction_l/value	/jointset/knee_l/knee_rotation_l/value	/jointset/ankle_l/ankle_angle_l/value	/jointset/subtalar_l/subtalar_angle_l/value	/jointset/ground_pelvis/pelvis_tilt/speed	/jointset/ground_pelvis/pelvis_tx/speed	/jointset/ground_pelvis/pelvis_ty/speed	/jointset/hip_l/hip_flexion_l/speed	/jointset/hip_l/hip_adduction_l/speed	/jointset/hip_l/hip_rotation_l/speed	/jointset/back/lumbar_extension/speed	/jointset/patellofemoral_l/patellar_flexion_l/speed	/jointset/knee_l/knee_flexion_l/speed	/jointset/knee_l/knee_adduction_l/speed	/jointset/knee_l/knee_rotation_l/speed	/jointset/ankle_l/ankle_angle_l/speed	/jointset/subtalar_l/subtalar_angle_l/speed	/forceset/tau_hip_flexion_l	/forceset/tau_hip_adduction_l	/forceset/tau_hip_rotation_l	/forceset/tau_knee_flexion_l	/forceset/tau_ankle_angle_l	/forceset/tau_subtalar_angle_l	/forceset/tau_lumbar_extension	lambda_cid13_p0	lambda_cid13_p1	lambda_cid13_p2	lambda_cid13_p3	lambda_cid13_p4	lambda_cid13_p5	lambda_cid14_p0	/jointset/ground_pelvis/pelvis_tilt/accel	/jointset/ground_pelvis/pelvis_tx/accel	/jointset/ground_pelvis/pelvis_ty/accel	/jointset/hip_l/hip_flexion_l/accel	/jointset/hip_l/hip_adduction_l/accel	/jointset/hip_l/hip_rotation_l/accel	/jointset/back/lumbar_extension/accel	/jointset/patellofemoral_l/patellar_flexion_l/accel	/jointset/knee_l/knee_flexion_l/accel	/jointset/knee_l/knee_adduction_l/accel	/jointset/knee_l/knee_rotation_l/accel	/jointset/ankle_l/ankle_angle_l/accel	/jointset/subtalar_l/subtalar_angle_l/accel	gamma_cid13_p0	gamma_cid13_p1	gamma_cid13_p2	gamma_cid13_p3	gamma_cid13_p4	gamma_cid13_p5	gamma_cid14_p0
1	-0.4499236263684199	-0.05434516137953064	0.5911181603615173	1.782216394103858	-0.2723309438293233	0.2241036578563014	-0.4363214961075088	1.425924761014612	1.425924761014811	-0.1742841475840293	0.1745168345863991	0.3108384884407192	0.04919841897071375	-0.008869121830869731	0.0005120893990970331	-0.001803501770675114	0.01114755545583159	0.0003601647075307003	0.001113773711203006	0.0002405407446834183	0.003175347482294946	0.00317534748229532	0.0001391417864670292	-3.672480733691188e-05	0.00109062186386861	0.0007627862841852582	-0.3336166352504904	0.01472081376675127	-0.0124961095427612	-0.3700544460030651	0.05251772924816953	0.009865719328027147	0.2975998858504192	-29.68380512630476	3.004664045681342	-3.270928139363792	16.82166289867818	-730.7042139315179	-47.69779456427198	-0.03926288529266501	1.085226146868997	-0.01801620071468505	1.835983659369605	-5.7951256800775	-0.6071938167092968	-2.086077063874988	-0.0298132518255866	-5.612601352616715	-5.612601352616719	-0.08245537192329085	0.0157332673154307	-1.207691026396088	-1.09799759223705	1.53624050942497e-09	2.196126247325162e-09	-1.718440611355741e-09	-3.311874226759594e-09	2.220395785266049e-09	2.499009451363179e-09	2.272317713859635e-11
1.01	-0.4499585050213785	-0.05434094298627706	0.5911917621061593	1.782038913436045	-0.2723568462631075	0.2240084987892757	-0.4363200805274432	1.425676418787936	1.425676418787968	-0.1742836415167108	0.1745163994631066	0.3107893412076388	0.04915243365543828	0.0018888554114461	0.000333637166386619	0.01651541321954204	-0.04662005415245393	-0.005536312345732837	-0.02013809065360356	4.500101566707525e-05	-0.05282349907837863	-0.05282349907837639	-3.609112777437607e-05	-4.902063754064272e-05	-0.01091848237678368	-0.009952391810180891	-0.3333780850807336	0.01473640788175444	-0.01252198633789415	-0.36991764755347	0.05270072765565304	0.009870082491312602	0.2974184956759947	-29.60176228090786	2.985023342757219	-3.263935195854236	16.70803754895771	-730.3834969687886	-47.69502637738235	-0.03927352875883598	1.070403409898436	-0.01745169655311816	1.828578067254157	-5.764033309967395	-0.5802317650622946	-2.143623773463786	-0.0140604715750239	-5.590480296166419	-5.590480296166133	0.01521441768904826	-0.009531781179537856	-1.197280776402838	-1.057165692705207	-7.808807033045738e-10	-1.254226616712395e-09	5.422201644193117e-08	4.178100112178883e-09	-8.539683017741417e-09	4.329838889910036e-08	-9.656083854442074e-09
1.02	-0.4498859399225175	-0.0543384475077514	0.5914482995303848	1.781284465730397	-0.2724415848905096	0.2237010445484653	-0.4363205475722739	1.424868697297978	1.424868697297841	-0.1742848334447648	0.1745158772269095	0.3106201508014513	0.04899951900428542	0.01261962853318603	0.0001675064535128636	0.0347836341460314	-0.1042458521112702	-0.01140707401609322	-0.04134526104562246	-0.0001359842387607403	-0.1087005051740018	-0.1087005051739975	-0.0002004572874710057	-5.414738739511877e-05	-0.02291801275755715	-0.02062308089129941	-0.3331395349109684	0.01475200199675848	-0.01254786313300079	-0.3697808491038754	0.05288372606313561	0.009874445654598859	0.2972371055015786	-29.52778025365407	2.967583136606146	-3.258194694223151	16.64438517883718	-730.1683870312041	-47.64056854319477	-0.03927778047208354	1.079785322753794	-0.01555189674734284	1.82584484662405	-5.766763350183656	-0.6020507401286618	-2.077138269317454	-0.0269023569078492	-5.588233259606634	-5.588233259606612	-0.08028202101433018	0.0171670833852735	-1.205776254420303	-1.089099789587513	-3.865161583624198e-09	-5.95581188046137e-09	1.092303517281612e-07	1.295129465455905e-08	-2.002548949210453e-08	8.142533773416015e-08	-1.908718405655087e-08
1.03	-0.4497061528930801	-0.05433751203871871	0.5918872438138764	1.779954433334915	-0.2725848675008135	0.2231818029285104	-0.4363226567162145	1.423502781840133	1.423502781839959	-0.1742876631751316	0.1745153586130614	0.310330949037094	0.0487401786932577	0.02333791283707351	2.554152446361734e-05	0.05299462519303907	-0.1617403786901989	-0.01724112576443702	-0.06249172605000097	-0.0002735509423739613	-0.16446570241243	-0.164465702412423	-0.000365712032443412	-4.678901161668945e-05	-0.03492701407976157	-0.0312309670019231	-0.3328403064590127	0.01481629408486757	-0.01263432658414216	-0.3694629059619193	0.05313594717676191	0.009957305023862117	0.2970578069486457	-29.41643510595163	2.898156654526769	-3.231197609679919	16.49557863752769	-729.8196463894288	-47.63593660137495	-0.03930808804110442	1.067871348660002	-0.01262126447215922	1.817130256469043	-5.737759845854151	-0.5728583014792212	-2.131722006451173	-0.005339786029913567	-5.568124598309155	-5.568124598308761	0.0153070589012863	-0.007099756798586639	-1.199159760846855	-1.044549066999621	-6.957270623817196e-09	-1.067016482175843e-08	1.642291755677887e-07	2.173758328064782e-08	-3.151870135086923e-08	1.195250168690906e-07	-2.851575663795076e-08
